<?xml version="1.0" standalone="no"?>
<!DOCTYPE svg PUBLIC "-//W3C//DTD SVG 20010904//EN"
 "http://www.w3.org/TR/2001/REC-SVG-20010904/DTD/svg10.dtd">
<svg version="1.0" xmlns="http://www.w3.org/2000/svg"
 width="512.000000pt" height="512.000000pt" viewBox="0 0 512.000000 512.000000"
 preserveAspectRatio="xMidYMid meet">

<g transform="translate(0.000000,512.000000) scale(0.100000,-0.100000)"
fill="#000000" stroke="none">
<path d="M1420 5113 c-15 -3 -81 -61 -166 -146 -151 -152 -167 -179 -144 -243
6 -17 458 -476 1078 -1096 l1067 -1068 -1067 -1067 c-620 -621 -1072 -1080
-1078 -1097 -24 -64 -7 -91 144 -242 148 -148 167 -160 239 -148 27 4 237 211
1274 1251 1306 1311 1264 1266 1245 1335 -4 18 -426 449 -1210 1238 -662 665
-1222 1225 -1245 1244 -42 34 -90 48 -137 39z"/>
</g>
</svg>
