<?xml version="1.0" standalone="no"?>
<!DOCTYPE svg PUBLIC "-//W3C//DTD SVG 20010904//EN"
 "http://www.w3.org/TR/2001/REC-SVG-20010904/DTD/svg10.dtd">
<svg version="1.0" xmlns="http://www.w3.org/2000/svg"
 width="512.000000pt" height="512.000000pt" viewBox="0 0 512.000000 512.000000"
 preserveAspectRatio="xMidYMid meet">

<g transform="translate(0.000000,512.000000) scale(0.100000,-0.100000)"
fill="#000000" stroke="none">
<path d="M3602 5099 c-61 -31 -2484 -2467 -2495 -2509 -4 -17 -4 -43 0 -60 12
-44 2435 -2480 2497 -2510 80 -38 100 -28 262 134 151 151 168 178 144 242 -6
17 -458 476 -1078 1097 l-1067 1067 1067 1068 c620 620 1072 1079 1078 1096
23 61 5 93 -124 224 -67 68 -132 132 -146 142 -43 30 -89 34 -138 9z"/>
</g>
</svg>
