<?xml version="1.0" standalone="no"?>
<!DOCTYPE svg PUBLIC "-//W3C//DTD SVG 20010904//EN"
 "http://www.w3.org/TR/2001/REC-SVG-20010904/DTD/svg10.dtd">
<svg version="1.0" xmlns="http://www.w3.org/2000/svg"
 width="512.000000pt" height="512.000000pt" viewBox="0 0 512.000000 512.000000"
 preserveAspectRatio="xMidYMid meet">

<g transform="translate(0.000000,512.000000) scale(0.100000,-0.100000)"
fill="#000000" stroke="none">
<path d="M162 4900 c-57 -13 -108 -55 -136 -111 -44 -89 -31 -175 37 -243 61
-60 91 -66 342 -66 237 0 267 -6 304 -59 10 -14 183 -521 385 -1126 427 -1284
396 -1146 325 -1427 -64 -254 -56 -378 36 -533 70 -118 219 -228 347 -254 37
-8 459 -10 1404 -9 l1351 3 39 27 c21 15 50 44 64 65 21 31 25 48 25 113 0 67
-3 81 -27 116 -15 21 -44 50 -65 64 l-37 25 -1340 5 c-1458 5 -1365 1 -1400
61 -22 37 -20 63 10 182 29 115 41 140 87 167 31 19 60 20 1206 20 900 0 1183
3 1215 12 23 7 59 30 82 54 41 40 45 53 338 930 163 489 296 902 296 918 0 80
-54 165 -124 197 -39 18 -110 19 -1786 19 -1153 0 -1757 4 -1782 10 -71 20
-87 51 -204 405 -97 291 -113 332 -147 371 -62 71 -84 74 -476 73 -185 -1
-351 -5 -369 -9z"/>
<path d="M1570 830 c-165 -61 -273 -200 -287 -371 -21 -254 202 -477 456 -456
176 15 322 132 375 302 28 88 19 211 -21 297 -44 93 -109 160 -201 205 -68 34
-83 38 -171 40 -77 3 -107 -1 -151 -17z"/>
<path d="M4130 830 c-165 -61 -273 -200 -287 -371 -21 -254 202 -477 456 -456
176 15 322 132 375 302 28 88 19 211 -21 297 -44 93 -109 160 -201 205 -68 34
-83 38 -171 40 -77 3 -107 -1 -151 -17z"/>
</g>
</svg>
