<?xml version="1.0" standalone="no"?>
<!DOCTYPE svg PUBLIC "-//W3C//DTD SVG 20010904//EN"
 "http://www.w3.org/TR/2001/REC-SVG-20010904/DTD/svg10.dtd">
<svg version="1.0" xmlns="http://www.w3.org/2000/svg"
 width="512.000000pt" height="512.000000pt" viewBox="0 0 512.000000 512.000000"
 preserveAspectRatio="xMidYMid meet">

<g transform="translate(0.000000,512.000000) scale(0.100000,-0.100000)"
fill="#000000" stroke="none">
<path d="M3217 4144 c-265 -48 -498 -241 -601 -497 -14 -36 -29 -80 -32 -97
l-6 -30 -1062 0 c-1013 0 -1063 -1 -1102 -19 -61 -28 -89 -73 -89 -143 0 -63
19 -97 75 -135 l33 -23 1071 0 1071 0 27 -88 c63 -201 216 -377 411 -472 127
-61 191 -75 347 -75 156 1 219 14 347 76 195 93 344 264 410 469 l28 90 271 0
c264 0 272 1 304 23 50 33 72 70 77 124 5 65 -26 120 -87 151 -43 21 -54 22
-306 22 l-261 0 -7 30 c-11 57 -59 165 -103 234 -123 192 -318 322 -538 361
-105 18 -174 18 -278 -1z m244 -318 c195 -42 343 -201 372 -400 49 -340 -264
-618 -598 -531 -177 47 -315 198 -347 383 -42 247 122 494 365 547 81 18 128
18 208 1z"/>
<path d="M1617 2544 c-265 -48 -498 -241 -601 -497 -14 -36 -29 -80 -32 -97
l-6 -30 -262 0 c-233 0 -265 -2 -302 -19 -61 -28 -89 -73 -89 -143 0 -63 19
-97 75 -135 32 -22 40 -23 304 -23 l271 0 27 -88 c63 -201 216 -377 411 -472
127 -61 191 -75 347 -75 156 1 219 14 347 76 195 93 344 264 410 469 l28 90
1071 0 1071 0 33 23 c50 33 72 70 77 124 5 65 -26 120 -87 151 l-44 22 -1062
0 -1061 0 -7 30 c-11 57 -59 165 -103 234 -123 192 -318 322 -538 361 -105 18
-174 18 -278 -1z m244 -318 c195 -42 343 -201 372 -400 49 -340 -264 -618
-598 -531 -177 47 -315 198 -347 383 -42 247 122 494 365 547 81 18 128 18
208 1z"/>
</g>
</svg>
