<svg xmlns="http://www.w3.org/2000/svg" width="20.012" height="20" viewBox="0 0 20.012 20">
  <g id="fi-sr-home" transform="translate(0 -0.16)">
    <path id="Path_6" data-name="Path 6" d="M194.5,319.841a2.5,2.5,0,0,0-2.5,2.5v5h5v-5A2.5,2.5,0,0,0,194.5,319.841Z" transform="translate(-184.495 -307.186)" fill="#62504e"/>
    <g id="Group_3510" data-name="Group 3510" transform="translate(0 0.16)">
      <path id="Path_7" data-name="Path 7" d="M14.176,15.157v5h3.335a2.5,2.5,0,0,0,2.5-2.5V10.053a1.668,1.668,0,0,0-.469-1.161L12.457,1.231a3.335,3.335,0,0,0-4.713-.186q-.1.089-.186.186L.484,8.889A1.668,1.668,0,0,0,0,10.065v7.593a2.5,2.5,0,0,0,2.5,2.5H5.837v-5a4.169,4.169,0,1,1,8.339,0Z" transform="translate(0 -0.16)" fill="#62504e"/>
      <path id="Path_8" data-name="Path 8" d="M194.5,319.841a2.5,2.5,0,0,0-2.5,2.5v5h5v-5A2.5,2.5,0,0,0,194.5,319.841Z" transform="translate(-184.495 -307.346)" fill="#62504e"/>
    </g>
  </g>
</svg>
