<svg width="16" height="18" viewBox="0 0 16 18" fill="none" xmlns="http://www.w3.org/2000/svg">
<path fill-rule="evenodd" clip-rule="evenodd" d="M14.9626 9.22065C14.7338 8.32337 14.0227 7.65665 13.1509 7.51333C12.9468 7.49464 12.7428 7.48218 12.5387 7.48218H2.90518L2.57128 7.48841C2.1941 7.50087 1.95295 7.51956 1.85402 7.55072C1.01927 7.79996 0.444229 8.39192 0.233997 9.21442C0.172164 9.45743 0.172164 15.2212 0.233997 15.4642C0.444229 16.2867 1.00691 16.8662 1.85402 17.1341C1.99005 17.1777 2.58365 17.184 7.46226 17.1902C11.1722 17.1964 12.9901 17.1902 13.1262 17.1653C14.0104 17.0282 14.7338 16.3552 14.9564 15.458C15.0244 15.2274 15.0244 9.46366 14.9626 9.22065ZM8.24754 12.3237C8.17334 12.386 8.14242 12.4421 8.14242 12.5418C8.14861 12.8783 8.14861 13.221 8.14242 13.5575C8.14242 13.9127 7.91364 14.1619 7.59211 14.1557C7.27676 14.1557 7.05416 13.9064 7.05416 13.5575C7.05416 13.3892 7.05416 13.221 7.05416 13.0528C7.05416 12.8721 7.06035 12.6851 7.04798 12.5044C7.04798 12.4483 7.01088 12.386 6.97378 12.3486C6.65225 12.062 6.51622 11.7131 6.62752 11.2956C6.73882 10.8719 7.02943 10.6226 7.45608 10.5541C7.89509 10.4856 8.3341 10.7348 8.51342 11.1523C8.69892 11.5511 8.58762 12.0433 8.24754 12.3237Z" fill="white"/>
<path opacity="0.4" fill-rule="evenodd" clip-rule="evenodd" d="M12.0565 7.48848H10.5725L10.5601 6.13633C10.5478 4.87766 10.5478 4.7655 10.4859 4.54118C10.3437 3.99284 10.0716 3.51305 9.70065 3.13918C9.32965 2.76532 8.8659 2.49115 8.34032 2.35407C7.67253 2.1796 6.88107 2.2606 6.29365 2.55969C5.52074 2.94602 4.9457 3.65013 4.72928 4.49133C4.65508 4.77796 4.65508 4.78419 4.64272 6.1301L4.63035 7.48225H2.90521L3.14018 7.47601L3.15873 6.06779C3.17109 4.79042 3.17728 4.63464 3.23293 4.37294C3.51736 3.00833 4.35829 1.89297 5.55784 1.26363C6.05869 1.00193 6.49152 0.871073 7.17168 0.771375C7.38191 0.74022 8.19192 0.783837 8.46399 0.839917C10.2324 1.20132 11.568 2.53477 11.9637 4.35424C12.0256 4.63464 12.0317 4.74057 12.0441 6.06779L12.0565 7.48848Z" fill="white"/>
</svg>
