<svg width="23" height="23" viewBox="0 0 23 23" fill="none" xmlns="http://www.w3.org/2000/svg">
<path opacity="0.4" d="M12.7345 1.87354C13.1654 1.87354 13.5229 2.22187 13.5229 2.66187V19.4277C13.5229 19.8585 13.1745 20.216 12.7345 20.216C7.33537 20.216 3.56787 16.4485 3.56787 11.0494C3.56787 5.6502 7.34454 1.87354 12.7345 1.87354Z" fill="white"/>
<path d="M19.4262 10.6187L16.8229 8.0062C16.6935 7.87834 16.519 7.80664 16.3371 7.80664C16.1552 7.80664 15.9806 7.87834 15.8512 8.0062C15.5854 8.27203 15.5854 8.71203 15.8512 8.97787L17.2812 10.4079H8.50873C8.13289 10.4079 7.82123 10.7195 7.82123 11.0954C7.82123 11.4712 8.13289 11.7829 8.50873 11.7829H17.2812L15.8512 13.2129C15.5854 13.4787 15.5854 13.9187 15.8512 14.1845C15.9887 14.322 16.1629 14.3862 16.3371 14.3862C16.5112 14.3862 16.6854 14.322 16.8229 14.1845L19.4262 11.572C19.4894 11.5098 19.5396 11.4356 19.5739 11.3537C19.6081 11.2719 19.6257 11.1841 19.6257 11.0954C19.6257 11.0067 19.6081 10.9188 19.5739 10.837C19.5396 10.7552 19.4894 10.681 19.4262 10.6187Z" fill="white"/>
</svg>
