<?xml version="1.0" standalone="no"?>
<!DOCTYPE svg PUBLIC "-//W3C//DTD SVG 20010904//EN"
 "http://www.w3.org/TR/2001/REC-SVG-20010904/DTD/svg10.dtd">
<svg version="1.0" xmlns="http://www.w3.org/2000/svg"
 width="512.000000pt" height="512.000000pt" viewBox="0 0 512.000000 512.000000"
 preserveAspectRatio="xMidYMid meet">

<g transform="translate(0.000000,512.000000) scale(0.100000,-0.100000)"
fill="#000000" stroke="none">
<path d="M2160 4350 c-265 -37 -488 -119 -690 -255 -362 -243 -596 -595 -682
-1027 -32 -161 -32 -425 0 -586 32 -158 73 -278 142 -417 303 -605 954 -949
1622 -860 251 33 513 135 701 273 l49 35 356 -356 c370 -369 403 -396 481
-397 121 -1 222 100 221 221 -1 78 -28 111 -396 480 l-356 356 62 94 c283 431
338 978 145 1456 -203 504 -657 872 -1195 969 -101 19 -369 26 -460 14z m386
-435 c238 -42 439 -148 615 -324 104 -104 160 -181 219 -300 157 -314 161
-699 10 -1017 -109 -227 -322 -438 -557 -549 -284 -135 -649 -140 -949 -12
-238 101 -471 325 -584 561 -151 318 -147 703 10 1017 59 119 115 196 219 300
182 183 396 291 661 332 66 11 275 6 356 -8z"/>
</g>
</svg>
